<svg class="icon" viewBox="0 0 1024 1024" xmlns="http://www.w3.org/2000/svg" width="64" height="64"><path d="M128 0h768q128 0 128 128v768q0 128-128 128H128Q0 1024 0 896V128Q0 0 128 0Z" fill="#E0E0E0"/><path d="M341.696 329.728c5.333-85.27 74.816-153.472 160.341-158.805 99.414-5.334 180.63 73.536 180.63 170.538 0 93.803-76.95 170.539-171.008 170.539-98.347 0-176.363-83.136-169.963-182.272zM832 803.947C832 819.52 819.99 832 804.95 832h-585.9c-15.04 0-27.05-12.459-27.05-28.053v-83.094c0-110.08 213.333-166.186 319.51-166.186 106.154 0 319.487 55.04 319.487 166.186L832 803.947z" fill="#999"/></svg>